ffmpeg started on 2025-06-06 at 20:31:23
Report written to "D:\Convert\FFMetrics\reports\ssim_report-6.txt"
Log level: 32
Command line:
ffmpeg -hide_banner -nostdin -i "G:\\\xc0\xed\xe8\xec\xe5\\\xce\xed\xe3\xee\xe8\xed\xe3\xe8\\!_36_\xce\xf1\xe5\xed\xfc_2024\\DreamCast\\\xd2\xe5\xf2\xf0\xe0\xe4\xfc \xe4\xf0\xf3\xe6\xe1\xfb \xcd\xe0\xf6\xf3\xec\xfd [\xd2\xc2-7]\\[DC] Natsume Yuujinchou Shichi - 02_Telegram_HEVC.mkv" -i "G:\\\xc0\xed\xe8\xec\xe5\\\xce\xed\xe3\xee\xe8\xed\xe3\xe8\\!_36_\xce\xf1\xe5\xed\xfc_2024\\DreamCast\\\xd2\xe5\xf2\xf0\xe0\xe4\xfc \xe4\xf0\xf3\xe6\xe1\xfb \xcd\xe0\xf6\xf3\xec\xfd [\xd2\xc2-7]\\[DC] Natsume Yuujinchou Shichi - 02_Telegram.mp4" -lavfi "[0:v]settb=AVTB,setpts=PTS-STARTPTS,format=pix_fmts=yuv420p10,fps=24000/1001,scale=1920:1080:flags=bicubic[main];[1:v]settb=AVTB,setpts=PTS-STARTPTS,format=pix_fmts=yuv420p,fps=24000/1001,scale=1920:1080:flags=bicubic[ref];[main][ref]ssim=eof_action=endall:stats_file='D\\:/Convert/FFMetrics/logs/ssim_logfile-6.txt'" -f null -
Input #0, matroska,webm, from 'G:\Аниме\Онгоинги\!_36_Осень_2024\DreamCast\Тетрадь дружбы Нацумэ [ТВ-7]\[DC] Natsume Yuujinchou Shichi - 02_Telegram_HEVC.mkv':
  Metadata:
    COMPATIBLE_BRANDS: isomiso2avc1mp41
    MAJOR_BRAND     : isom
    MINOR_VERSION   : 512
    ENCODER         : Lavf61.7.100
  Duration: 00:23:57.91, start: -0.021000, bitrate: 837 kb/s
  Stream #0:0: Video: hevc (Main 10), yuv420p10le(tv, bt709, progressive), 1920x1080 [SAR 1:1 DAR 16:9], 23.98 fps, 23.98 tbr, 1k tbn (default)
      Metadata:
        HANDLER_NAME    : VideoHandler
        VENDOR_ID       : [0][0][0][0]
        ENCODER         : Lavc61.19.100 libx265
        BPS             : 641669
        DURATION        : 00:23:56.559708333
        NUMBER_OF_FRAMES: 34443
        NUMBER_OF_BYTES : 115224491
        _STATISTICS_WRITING_APP: mkvpropedit v66.0.0 ('Josie') 64-bit
        _STATISTICS_WRITING_DATE_UTC: 2025-06-04 14:25:35
        _STATISTICS_TAGS: BPS DURATION NUMBER_OF_FRAMES NUMBER_OF_BYTES
  Stream #0:1: Audio: aac (LC), 48000 Hz, stereo, fltp (default)
      Metadata:
        HANDLER_NAME    : SoundHandler
        VENDOR_ID       : [0][0][0][0]
        ENCODER         : Lavc61.19.100 aac
        BPS             : 192516
        DURATION        : 00:23:57.909000000
        NUMBER_OF_FRAMES: 67403
        NUMBER_OF_BYTES : 34602577
        _STATISTICS_WRITING_APP: mkvpropedit v66.0.0 ('Josie') 64-bit
        _STATISTICS_WRITING_DATE_UTC: 2025-06-04 14:25:35
        _STATISTICS_TAGS: BPS DURATION NUMBER_OF_FRAMES NUMBER_OF_BYTES
Input #1, mov,mp4,m4a,3gp,3g2,mj2, from 'G:\Аниме\Онгоинги\!_36_Осень_2024\DreamCast\Тетрадь дружбы Нацумэ [ТВ-7]\[DC] Natsume Yuujinchou Shichi - 02_Telegram.mp4':
  Metadata:
    major_brand     : isom
    minor_version   : 512
    compatible_brands: isomiso2avc1mp41
    encoder         : Lavf61.1.100
  Duration: 00:23:57.88, start: 0.000000, bitrate: 3318 kb/s
  Stream #1:0[0x1](und): Video: h264 (High) (avc1 / 0x31637661), yuv420p(tv, bt709, progressive), 1920x1080 [SAR 1:1 DAR 16:9], 3173 kb/s, 23.98 fps, 23.98 tbr, 24k tbn (default)
      Metadata:
        handler_name    : VideoHandler
        vendor_id       : [0][0][0][0]
        encoder         : Lavc61.3.100 h264_qsv
  Stream #1:1[0x2](und): Audio: aac (HE-AACv2) (mp4a / 0x6134706D), 48000 Hz, stereo, fltp, 144 kb/s (default)
      Metadata:
        handler_name    : SoundHandler
        vendor_id       : [0][0][0][0]
Stream mapping:
  Stream #0:0 (hevc) -> settb:default
  Stream #1:0 (h264) -> settb:default
  ssim:default -> Stream #0:0 (wrapped_avframe)
  Stream #0:1 -> #0:1 (aac (native) -> pcm_s16le (native))
Output #0, null, to 'pipe:':
  Metadata:
    COMPATIBLE_BRANDS: isomiso2avc1mp41
    MAJOR_BRAND     : isom
    MINOR_VERSION   : 512
    encoder         : Lavf61.7.100
  Stream #0:0: Video: wrapped_avframe, yuv420p10le(tv, bt709, progressive), 1920x1080 [SAR 1:1 DAR 16:9], q=2-31, 200 kb/s, 23.98 fps, 23.98 tbn
      Metadata:
        encoder         : Lavc61.19.100 wrapped_avframe
  Stream #0:1: Audio: pcm_s16le, 48000 Hz, stereo, s16, 1536 kb/s (default)
      Metadata:
        HANDLER_NAME    : SoundHandler
        VENDOR_ID       : [0][0][0][0]
        _STATISTICS_TAGS: BPS DURATION NUMBER_OF_FRAMES NUMBER_OF_BYTES
        BPS             : 192516
        DURATION        : 00:23:57.909000000
        NUMBER_OF_FRAMES: 67403
        NUMBER_OF_BYTES : 34602577
        _STATISTICS_WRITING_APP: mkvpropedit v66.0.0 ('Josie') 64-bit
        _STATISTICS_WRITING_DATE_UTC: 2025-06-04 14:25:35
        encoder         : Lavc61.19.100 pcm_s16le
frame=  178 fps=0.0 q=-0.0 size=N/A time=00:00:07.42 bitrate=N/A speed=14.4x    frame=  341 fps=332 q=-0.0 size=N/A time=00:00:14.22 bitrate=N/A speed=13.9x    frame=  552 fps=356 q=-0.0 size=N/A time=00:00:23.02 bitrate=N/A speed=14.8x    frame=  765 fps=372 q=-0.0 size=N/A time=00:00:31.90 bitrate=N/A speed=15.5x    frame=  978 fps=379 q=-0.0 size=N/A time=00:00:40.79 bitrate=N/A speed=15.8x    frame= 1184 fps=383 q=-0.0 size=N/A time=00:00:49.38 bitrate=N/A speed=  16x    frame= 1389 fps=385 q=-0.0 size=N/A time=00:00:57.93 bitrate=N/A speed=16.1x    frame= 1615 fps=391 q=-0.0 size=N/A time=00:01:07.35 bitrate=N/A speed=16.3x    frame= 1807 fps=390 q=-0.0 size=N/A time=00:01:15.36 bitrate=N/A speed=16.3x    frame= 1996 fps=387 q=-0.0 size=N/A time=00:01:23.24 bitrate=N/A speed=16.1x    frame= 2212 fps=390 q=-0.0 size=N/A time=00:01:32.25 bitrate=N/A speed=16.3x    frame= 2449 fps=395 q=-0.0 size=N/A time=00:01:42.14 bitrate=N/A speed=16.5x    frame= 2694 fps=402 q=-0.0 size=N/A time=00:01:52.36 bitrate=N/A speed=16.8x    frame= 2986 fps=413 q=-0.0 size=N/A time=00:02:04.54 bitrate=N/A speed=17.2x    frame= 3267 fps=422 q=-0.0 size=N/A time=00:02:16.26 bitrate=N/A speed=17.6x    frame= 3554 fps=431 q=-0.0 size=N/A time=00:02:28.23 bitrate=N/A speed=  18x    frame= 3793 fps=432 q=-0.0 size=N/A time=00:02:38.19 bitrate=N/A speed=  18x    frame= 4081 fps=440 q=-0.0 size=N/A time=00:02:50.21 bitrate=N/A speed=18.3x    frame= 4356 fps=445 q=-0.0 size=N/A time=00:03:01.68 bitrate=N/A speed=18.6x    frame= 4612 fps=447 q=-0.0 size=N/A time=00:03:12.35 bitrate=N/A speed=18.6x    frame= 4875 fps=450 q=-0.0 size=N/A time=00:03:23.32 bitrate=N/A speed=18.8x    frame= 5143 fps=454 q=-0.0 size=N/A time=00:03:34.50 bitrate=N/A speed=18.9x    frame= 5421 fps=457 q=-0.0 size=N/A time=00:03:46.10 bitrate=N/A speed=19.1x    frame= 5706 fps=461 q=-0.0 size=N/A time=00:03:57.98 bitrate=N/A speed=19.2x    frame= 6010 fps=466 q=-0.0 size=N/A time=00:04:10.66 bitrate=N/A speed=19.4x    frame= 6291 fps=469 q=-0.0 size=N/A time=00:04:22.38 bitrate=N/A speed=19.6x    frame= 6548 fps=470 q=-0.0 size=N/A time=00:04:33.10 bitrate=N/A speed=19.6x    frame= 6837 fps=473 q=-0.0 size=N/A time=00:04:45.15 bitrate=N/A speed=19.7x    frame= 7117 fps=475 q=-0.0 size=N/A time=00:04:56.83 bitrate=N/A speed=19.8x    frame= 7388 fps=477 q=-0.0 size=N/A time=00:05:08.14 bitrate=N/A speed=19.9x    frame= 7656 fps=478 q=-0.0 size=N/A time=00:05:19.31 bitrate=N/A speed=  20x    frame= 7937 fps=480 q=-0.0 size=N/A time=00:05:31.03 bitrate=N/A speed=  20x    frame= 8201 fps=482 q=-0.0 size=N/A time=00:05:42.05 bitrate=N/A speed=20.1x    frame= 8508 fps=485 q=-0.0 size=N/A time=00:05:54.85 bitrate=N/A speed=20.2x    frame= 8758 fps=485 q=-0.0 size=N/A time=00:06:05.28 bitrate=N/A speed=20.2x    frame= 9017 fps=485 q=-0.0 size=N/A time=00:06:16.08 bitrate=N/A speed=20.2x    frame= 9311 fps=488 q=-0.0 size=N/A time=00:06:28.34 bitrate=N/A speed=20.3x    frame= 9585 fps=489 q=-0.0 size=N/A time=00:06:39.77 bitrate=N/A speed=20.4x    frame= 9861 fps=490 q=-0.0 size=N/A time=00:06:51.28 bitrate=N/A speed=20.4x    frame=10141 fps=491 q=-0.0 size=N/A time=00:07:02.96 bitrate=N/A speed=20.5x    frame=10423 fps=493 q=-0.0 size=N/A time=00:07:14.72 bitrate=N/A speed=20.5x    frame=10689 fps=493 q=-0.0 size=N/A time=00:07:25.82 bitrate=N/A speed=20.6x    frame=10966 fps=494 q=-0.0 size=N/A time=00:07:37.37 bitrate=N/A speed=20.6x    frame=11269 fps=496 q=-0.0 size=N/A time=00:07:50.01 bitrate=N/A speed=20.7x    frame=11570 fps=498 q=-0.0 size=N/A time=00:08:02.56 bitrate=N/A speed=20.8x    frame=11823 fps=498 q=-0.0 size=N/A time=00:08:13.11 bitrate=N/A speed=20.8x    frame=12098 fps=499 q=-0.0 size=N/A time=00:08:24.58 bitrate=N/A speed=20.8x    frame=12378 fps=499 q=-0.0 size=N/A time=00:08:36.26 bitrate=N/A speed=20.8x    frame=12656 fps=500 q=-0.0 size=N/A time=00:08:47.86 bitrate=N/A speed=20.9x    frame=12921 fps=501 q=-0.0 size=N/A time=00:08:58.91 bitrate=N/A speed=20.9x    frame=13217 fps=502 q=-0.0 size=N/A time=00:09:11.25 bitrate=N/A speed=20.9x    frame=13519 fps=504 q=-0.0 size=N/A time=00:09:23.89 bitrate=N/A speed=  21x    frame=13814 fps=505 q=-0.0 size=N/A time=00:09:36.15 bitrate=N/A speed=21.1x    frame=14108 fps=506 q=-0.0 size=N/A time=00:09:48.42 bitrate=N/A speed=21.1x    frame=14392 fps=507 q=-0.0 size=N/A time=00:10:00.26 bitrate=N/A speed=21.1x    frame=14689 fps=508 q=-0.0 size=N/A time=00:10:12.65 bitrate=N/A speed=21.2x    frame=14951 fps=508 q=-0.0 size=N/A time=00:10:23.58 bitrate=N/A speed=21.2x    frame=15237 fps=509 q=-0.0 size=N/A time=00:10:35.50 bitrate=N/A speed=21.2x    frame=15516 fps=509 q=-0.0 size=N/A time=00:10:47.14 bitrate=N/A speed=21.2x    frame=15776 fps=509 q=-0.0 size=N/A time=00:10:57.99 bitrate=N/A speed=21.2x    frame=16039 fps=509 q=-0.0 size=N/A time=00:11:08.95 bitrate=N/A speed=21.2x    frame=16326 fps=510 q=-0.0 size=N/A time=00:11:20.93 bitrate=N/A speed=21.3x    frame=16593 fps=510 q=-0.0 size=N/A time=00:11:32.06 bitrate=N/A speed=21.3x    frame=16867 fps=510 q=-0.0 size=N/A time=00:11:43.49 bitrate=N/A speed=21.3x    frame=17126 fps=510 q=-0.0 size=N/A time=00:11:54.29 bitrate=N/A speed=21.3x    frame=17412 fps=511 q=-0.0 size=N/A time=00:12:06.22 bitrate=N/A speed=21.3x    frame=17682 fps=511 q=-0.0 size=N/A time=00:12:17.48 bitrate=N/A speed=21.3x    frame=17952 fps=511 q=-0.0 size=N/A time=00:12:28.74 bitrate=N/A speed=21.3x    frame=18246 fps=512 q=-0.0 size=N/A time=00:12:41.01 bitrate=N/A speed=21.4x    frame=18519 fps=512 q=-0.0 size=N/A time=00:12:52.39 bitrate=N/A speed=21.4x    frame=18801 fps=513 q=-0.0 size=N/A time=00:13:04.15 bitrate=N/A speed=21.4x    frame=19066 fps=513 q=-0.0 size=N/A time=00:13:15.21 bitrate=N/A speed=21.4x    frame=19317 fps=513 q=-0.0 size=N/A time=00:13:25.67 bitrate=N/A speed=21.4x    frame=19598 fps=513 q=-0.0 size=N/A time=00:13:37.39 bitrate=N/A speed=21.4x    frame=19892 fps=513 q=-0.0 size=N/A time=00:13:49.66 bitrate=N/A speed=21.4x    frame=20182 fps=514 q=-0.0 size=N/A time=00:14:01.75 bitrate=N/A speed=21.4x    frame=20470 fps=515 q=-0.0 size=N/A time=00:14:13.76 bitrate=N/A speed=21.5x    frame=20745 fps=515 q=-0.0 size=N/A time=00:14:25.23 bitrate=N/A speed=21.5x    frame=20993 fps=515 q=-0.0 size=N/A time=00:14:35.58 bitrate=N/A speed=21.5x    frame=21237 fps=514 q=-0.0 size=N/A time=00:14:45.75 bitrate=N/A speed=21.4x    frame=21527 fps=515 q=-0.0 size=N/A time=00:14:57.85 bitrate=N/A speed=21.5x    frame=21797 fps=515 q=-0.0 size=N/A time=00:15:09.11 bitrate=N/A speed=21.5x    frame=22075 fps=515 q=-0.0 size=N/A time=00:15:20.71 bitrate=N/A speed=21.5x    frame=22339 fps=515 q=-0.0 size=N/A time=00:15:31.68 bitrate=N/A speed=21.5x    frame=22625 fps=516 q=-0.0 size=N/A time=00:15:43.65 bitrate=N/A speed=21.5x    frame=22906 fps=516 q=-0.0 size=N/A time=00:15:55.37 bitrate=N/A speed=21.5x    frame=23172 fps=516 q=-0.0 size=N/A time=00:16:06.46 bitrate=N/A speed=21.5x    frame=23452 fps=516 q=-0.0 size=N/A time=00:16:18.14 bitrate=N/A speed=21.5x    frame=23743 fps=517 q=-0.0 size=N/A time=00:16:30.28 bitrate=N/A speed=21.6x    frame=24012 fps=517 q=-0.0 size=N/A time=00:16:41.50 bitrate=N/A speed=21.5x    frame=24247 fps=516 q=-0.0 size=N/A time=00:16:51.30 bitrate=N/A speed=21.5x    frame=24486 fps=515 q=-0.0 size=N/A time=00:17:01.27 bitrate=N/A speed=21.5x    frame=24779 fps=516 q=-0.0 size=N/A time=00:17:13.49 bitrate=N/A speed=21.5x    frame=25074 fps=517 q=-0.0 size=N/A time=00:17:25.79 bitrate=N/A speed=21.5x    frame=25357 fps=517 q=-0.0 size=N/A time=00:17:37.59 bitrate=N/A speed=21.6x    frame=25645 fps=517 q=-0.0 size=N/A time=00:17:49.61 bitrate=N/A speed=21.6x    frame=25941 fps=518 q=-0.0 size=N/A time=00:18:01.95 bitrate=N/A speed=21.6x    frame=26211 fps=518 q=-0.0 size=N/A time=00:18:13.21 bitrate=N/A speed=21.6x    frame=26479 fps=518 q=-0.0 size=N/A time=00:18:24.39 bitrate=N/A speed=21.6x    frame=26756 fps=518 q=-0.0 size=N/A time=00:18:35.94 bitrate=N/A speed=21.6x    frame=27048 fps=519 q=-0.0 size=N/A time=00:18:48.12 bitrate=N/A speed=21.6x    frame=27315 fps=519 q=-0.0 size=N/A time=00:18:59.26 bitrate=N/A speed=21.6x    frame=27588 fps=519 q=-0.0 size=N/A time=00:19:10.64 bitrate=N/A speed=21.6x    frame=27856 fps=519 q=-0.0 size=N/A time=00:19:21.82 bitrate=N/A speed=21.6x    frame=28074 fps=518 q=-0.0 size=N/A time=00:19:30.91 bitrate=N/A speed=21.6x    frame=28294 fps=517 q=-0.0 size=N/A time=00:19:40.09 bitrate=N/A speed=21.6x    frame=28586 fps=518 q=-0.0 size=N/A time=00:19:52.27 bitrate=N/A speed=21.6x    frame=28873 fps=518 q=-0.0 size=N/A time=00:20:04.24 bitrate=N/A speed=21.6x    frame=29113 fps=517 q=-0.0 size=N/A time=00:20:14.25 bitrate=N/A speed=21.6x    frame=29358 fps=517 q=-0.0 size=N/A time=00:20:24.47 bitrate=N/A speed=21.6x    frame=29565 fps=516 q=-0.0 size=N/A time=00:20:33.10 bitrate=N/A speed=21.5x    frame=29743 fps=515 q=-0.0 size=N/A time=00:20:40.53 bitrate=N/A speed=21.5x    frame=29929 fps=513 q=-0.0 size=N/A time=00:20:48.28 bitrate=N/A speed=21.4x    frame=30138 fps=512 q=-0.0 size=N/A time=00:20:57.00 bitrate=N/A speed=21.4x    frame=30377 fps=512 q=-0.0 size=N/A time=00:21:06.97 bitrate=N/A speed=21.3x    frame=30646 fps=512 q=-0.0 size=N/A time=00:21:18.19 bitrate=N/A speed=21.3x    frame=30939 fps=512 q=-0.0 size=N/A time=00:21:30.41 bitrate=N/A speed=21.4x    frame=31207 fps=512 q=-0.0 size=N/A time=00:21:41.59 bitrate=N/A speed=21.4x    frame=31480 fps=513 q=-0.0 size=N/A time=00:21:52.97 bitrate=N/A speed=21.4x    frame=31753 fps=513 q=-0.0 size=N/A time=00:22:04.36 bitrate=N/A speed=21.4x    frame=32025 fps=513 q=-0.0 size=N/A time=00:22:15.70 bitrate=N/A speed=21.4x    frame=32254 fps=512 q=-0.0 size=N/A time=00:22:25.26 bitrate=N/A speed=21.4x    frame=32492 fps=512 q=-0.0 size=N/A time=00:22:35.18 bitrate=N/A speed=21.3x    frame=32742 fps=512 q=-0.0 size=N/A time=00:22:45.61 bitrate=N/A speed=21.3x    frame=32988 fps=511 q=-0.0 size=N/A time=00:22:55.87 bitrate=N/A speed=21.3x    frame=33248 fps=511 q=-0.0 size=N/A time=00:23:06.71 bitrate=N/A speed=21.3x    frame=33496 fps=511 q=-0.0 size=N/A time=00:23:17.06 bitrate=N/A speed=21.3x    frame=33742 fps=511 q=-0.0 size=N/A time=00:23:27.32 bitrate=N/A speed=21.3x    frame=33989 fps=510 q=-0.0 size=N/A time=00:23:37.62 bitrate=N/A speed=21.3x    frame=34208 fps=510 q=-0.0 size=N/A time=00:23:46.75 bitrate=N/A speed=21.3x    [Parsed_ssim_10 @ 000001f34da81840] SSIM Y:0.995309 (23.286989) U:0.994201 (22.366316) V:0.994771 (22.816039) All:0.995034 (23.040301)
[out#0/null @ 000001f34da346c0] video:14800KiB audio:269612KiB subtitle:0KiB other streams:0KiB global headers:0KiB muxing overhead: unknown
frame=34443 fps=510 q=-0.0 Lsize=N/A time=00:23:56.56 bitrate=N/A speed=21.3x    
